<?xml version="1.0" encoding="utf-8"?>
<!-- Generator: Adobe Illustrator 19.0.0, SVG Export Plug-In . SVG Version: 6.00 Build 0)  -->
<svg version="1.1" id="Layer_1" xmlns="http://www.w3.org/2000/svg" xmlns:xlink="http://www.w3.org/1999/xlink" x="0px" y="0px"
	 viewBox="0 0 401.5 399.5" style="enable-background:new 0 0 401.5 399.5;" xml:space="preserve">
<style type="text/css">
	.st0{fill:#80B242;}
</style>
<g>
	<path class="st0" d="M298.7,123.1c-0.1,0-0.2,0-0.3,0c-1.6,0.1-3,0.7-4.1,1.9L159.7,264l-53.9-53.9c-1.1-1.2-2.7-1.8-4.3-1.8
		c-1.6,0-3,0.6-4.2,1.7c-2.4,2.3-2.4,6.1-0.1,8.5l58.2,58.2c1.1,1.2,2.7,1.8,4.3,1.8c1.6,0,3-0.6,4.2-1.7l139-143.5
		c1.2-1.1,1.8-2.6,1.8-4.2c0-1.6-0.6-3.1-1.7-4.3C301.9,123.8,300.3,123.1,298.7,123.1z"/>
	<path class="st0" d="M200,6.8C93,6.8,5.9,93.9,5.9,200.9C5.9,308,93,395.1,200,395.1c107,0,194.1-87.1,194.1-194.1
		C394.2,93.9,307.1,6.8,200,6.8z M200,383.1c-48.7,0-94.4-18.9-128.8-53.3s-53.3-80.2-53.3-128.8s18.9-94.4,53.3-128.8
		S151.3,18.8,200,18.8s94.4,18.9,128.8,53.3s53.3,80.2,53.3,128.8s-18.9,94.4-53.3,128.8S248.7,383.1,200,383.1z"/>
</g>
</svg>
