<?xml version="1.0" encoding="utf-8"?>
<!-- Generator: Adobe Illustrator 19.0.0, SVG Export Plug-In . SVG Version: 6.00 Build 0)  -->
<svg version="1.1" id="Layer_1" xmlns="http://www.w3.org/2000/svg" xmlns:xlink="http://www.w3.org/1999/xlink" x="0px" y="0px"
	 viewBox="0 0 71.3 18.2" style="enable-background:new 0 0 71.3 18.2;" xml:space="preserve">
<style type="text/css">
	.st0{fill:#73A441;}
	.st1{fill-rule:evenodd;clip-rule:evenodd;fill:#73A441;}
</style>
<g>
	<path class="st0" d="M43.5,13.1L39.6,3c-0.2-0.4-0.3-0.6-0.4-0.8c-0.5-0.6-0.9-0.5-1.3-0.8c-0.1-0.1-0.1-0.1-0.1-0.2
		c0-0.1,0-0.2,0.1-0.3c0.1-0.1,0.2-0.1,0.4-0.1c0.6,0,1.2,0.1,1.8,0.1c0.3,0,0.6,0,0.8,0c0.3,0,0.6,0,1,0c0.1,0,0.2,0,0.5,0
		c0.2,0,0.4,0,0.5,0c0.2,0,0.3,0,0.3,0.1c0.1,0.1,0.1,0.1,0.1,0.3c0,0.1,0,0.2-0.1,0.2c0,0.1-0.2,0.1-0.3,0.2c0,0-0.1,0-0.1,0
		c0,0,0,0,0,0h0c-0.4,0.2-0.6,0.4-0.6,0.7c0,0.1,0,0.2,0.1,0.4c0,0.2,0.1,0.4,0.2,0.6l2.3,5.9c0,0.1,0.1,0.1,0.1,0.2
		c0,0,0.1,0.1,0.1,0.1c0,0,0.1,0,0.1-0.1c0,0,0.1-0.1,0.1-0.2l1.5-3.6c0-0.1,0.1-0.2,0.1-0.3c0-0.1,0-0.2,0-0.2c0,0,0-0.1,0-0.1
		c0-0.1,0-0.1-0.1-0.3L46.3,3c-0.1-0.4-0.3-0.7-0.4-0.8c-0.1-0.2-0.3-0.3-0.6-0.5c0,0-0.1-0.1-0.2-0.1c-0.1,0-0.1-0.1-0.2-0.1
		c-0.2,0-0.3-0.1-0.4-0.2c-0.1-0.1-0.1-0.1-0.1-0.2c0-0.1,0.1-0.2,0.2-0.3c0.1-0.1,0.2-0.1,0.4-0.1c0.6,0,1.1,0.1,1.7,0.1
		c0.2,0,0.5,0,0.8,0c0.7,0,1.4-0.1,2-0.1c0.2,0,0.3,0,0.3,0.1C50,0.9,50,1,50,1.1c0,0.1,0,0.2-0.1,0.2c-0.1,0.1-0.2,0.1-0.3,0.2
		c0,0,0,0,0,0h0c-0.3,0.1-0.4,0.2-0.5,0.3C49,2,49,2.1,49,2.3c0,0.1,0,0.2,0.1,0.4c0,0.2,0.1,0.4,0.2,0.6l2.1,5.7
		c0,0.1,0.1,0.1,0.1,0.1c0,0,0.1,0,0.1,0c0,0,0.1,0,0.1-0.1c0,0,0.1-0.1,0.1-0.1l2-5.1c0.1-0.2,0.2-0.5,0.2-0.7
		c0-0.2,0.1-0.4,0.1-0.6c0-0.3-0.1-0.5-0.2-0.7c-0.2-0.2-0.4-0.3-0.7-0.4c-0.1,0-0.1,0-0.2-0.1c0,0,0,0-0.1,0h0
		c-0.4-0.1-0.6-0.2-0.6-0.5c0-0.1,0-0.2,0.1-0.2c0.1-0.1,0.2-0.1,0.3-0.1h0.1c0,0,0.1,0,0.1,0c0,0,0.1,0,0.1,0
		c0.6,0.1,1.1,0.1,1.7,0.1c0.5,0,1-0.1,1.4-0.1c0.1,0,0.2,0,0.2,0.1c0,0,0.1,0.1,0.1,0.2c0,0.1,0,0.2-0.1,0.2c0,0.1-0.1,0.1-0.2,0.2
		c0,0,0,0,0,0c-0.1,0.1-0.2,0.1-0.2,0.2c-0.2,0.2-0.3,0.5-0.5,0.8c-0.2,0.3-0.3,0.7-0.5,1.1l-3.1,7.6c0,0.1,0,0.1-0.1,0.2
		c0,0,0,0.1,0,0.1c-0.4,1-0.7,1.6-0.8,1.9c-0.2,0.2-0.3,0.4-0.5,0.4c-0.1,0-0.2,0-0.2-0.1c-0.1-0.1-0.1-0.2-0.2-0.5l-2.4-6.5
		c0,0,0,0,0,0c0,0,0,0,0,0c0,0,0,0,0-0.1c0,0,0,0,0,0c0,0-0.1,0-0.1,0c0,0,0,0.1-0.1,0.1l-2,4.6c-0.1,0.2-0.2,0.4-0.3,0.7
		c0,0.1-0.1,0.2-0.1,0.2c-0.3,0.7-0.5,1.1-0.6,1.3c-0.1,0.2-0.3,0.2-0.5,0.2c-0.1,0-0.2,0-0.2-0.1C43.6,13.5,43.6,13.3,43.5,13.1
		 M58.9,9.4c-0.7,0.1-1.3,0.3-1.7,0.6c-0.4,0.3-0.6,0.8-0.6,1.4c0,0.3,0.1,0.5,0.2,0.7c0.2,0.2,0.4,0.2,0.7,0.2c0.5,0,0.8-0.1,1-0.2
		c0.2-0.2,0.3-0.4,0.3-0.9V9.4z M58.9,12.5c-0.5,0.4-1,0.6-1.4,0.8c-0.5,0.2-0.9,0.3-1.4,0.3c-0.6,0-1-0.2-1.4-0.5
		c-0.3-0.4-0.5-0.8-0.5-1.4c0-0.8,0.3-1.5,0.9-1.9C55.8,9.3,57,9,58.9,8.7V7.8c0-0.5-0.1-0.9-0.4-1.2c-0.3-0.3-0.6-0.5-1.1-0.5
		c-0.2,0-0.3,0-0.4,0.1c-0.1,0.1-0.1,0.2-0.1,0.4c0,0.1,0,0.1,0,0.2c0,0,0,0.1,0,0.1v0.2c0,0.3-0.2,0.5-0.5,0.7
		c-0.3,0.2-0.7,0.3-1.3,0.3c-0.2,0-0.4,0-0.5-0.1c-0.1-0.1-0.1-0.2-0.1-0.5c0-0.7,0.3-1.2,0.9-1.6c0.6-0.4,1.4-0.6,2.5-0.6
		c1.2,0,2,0.2,2.5,0.6c0.5,0.4,0.7,1.1,0.7,2.2v3.2c0,0.3,0,0.6,0.1,0.7c0.1,0.1,0.2,0.2,0.4,0.2h0.1c0,0,0.1,0,0.2,0c0,0,0,0,0.1,0
		c0.1,0,0.1,0,0.2,0c0,0,0.1,0,0.1,0.1c0,0,0,0.1,0,0.2c0,0.2-0.2,0.5-0.6,0.7c-0.4,0.3-0.9,0.4-1.3,0.4c-0.3,0-0.7-0.1-0.9-0.2
		C59.3,13.1,59.1,12.9,58.9,12.5 M65.4,12.3l-2.9-5.1c0,0,0,0,0-0.1c0,0,0-0.1-0.1-0.1c-0.1-0.2-0.2-0.4-0.4-0.5
		c-0.1-0.1-0.2-0.2-0.4-0.3c-0.2-0.1-0.3-0.2-0.3-0.2c0-0.1-0.1-0.1-0.1-0.2c0-0.1,0-0.2,0.1-0.3c0.1-0.1,0.2-0.1,0.4-0.1
		c0.1,0,0.2,0,0.3,0c0.1,0,0.2,0,0.2,0c0.3,0,0.6,0.1,0.8,0.1c0.2,0,0.4,0,0.6,0c0.2,0,0.5,0,0.9-0.1c0.1,0,0.2,0,0.2,0
		c0.2,0,0.4-0.1,0.5-0.1c0.1,0,0.2,0,0.3,0c0.2,0,0.3,0,0.4,0.1c0.1,0,0.1,0.1,0.1,0.2c0,0.1-0.1,0.3-0.4,0.3l0,0c0,0,0,0,0,0
		c0,0,0,0-0.1,0c-0.2,0.1-0.4,0.2-0.5,0.2c-0.1,0.1-0.1,0.2-0.1,0.4c0,0.1,0,0.2,0,0.2c0,0.1,0,0.1,0.1,0.2l1.7,2.9
		c0,0.1,0.1,0.1,0.1,0.2c0,0,0,0.1,0,0.1c0,0,0.1,0,0.1,0c0,0,0.1-0.1,0.1-0.1L68,8.7c0.2-0.3,0.3-0.7,0.4-1
		c0.1-0.3,0.1-0.5,0.1-0.7c0-0.2,0-0.4-0.1-0.5c-0.1-0.1-0.2-0.2-0.5-0.3c0,0,0,0-0.1,0c0,0-0.1,0-0.1,0c-0.2-0.1-0.4-0.1-0.4-0.2
		c-0.1,0-0.1-0.1-0.1-0.2c0-0.1,0-0.2,0.1-0.2c0.1,0,0.2-0.1,0.3-0.1c0.1,0,0.1,0,0.3,0c0.1,0,0.2,0,0.3,0c0.1,0,0.2,0,0.3,0
		c0.1,0,0.2,0,0.4,0c0.1,0,0.2,0,0.3,0c0.1,0,0.2,0,0.3,0c0,0,0.1,0,0.2,0c0.2,0,0.4,0,0.6,0c0.1,0,0.2,0,0.3,0.1
		c0.1,0.1,0.1,0.1,0.1,0.2c0,0.1,0,0.2-0.1,0.2c0,0.1-0.1,0.1-0.2,0.2c0,0,0,0-0.1,0c-0.1,0.1-0.2,0.1-0.2,0.2
		c-0.1,0.1-0.3,0.3-0.4,0.6c-0.2,0.3-0.4,0.7-0.7,1.3c0,0,0,0,0,0c0,0,0,0,0,0l-3.8,7.8c-0.1,0.2-0.2,0.3-0.3,0.4
		c-0.1,0.1-0.3,0.1-0.6,0.1c-0.3,0-0.5,0-0.6-0.1c-0.1,0-0.2-0.1-0.2-0.2c0-0.1,0-0.1,0-0.2c0-0.1,0.1-0.2,0.2-0.3c0,0,0,0,0,0
		c0,0,0,0,0.1-0.1l1.5-1.9c0.1-0.2,0.2-0.3,0.3-0.4c0-0.1,0.1-0.2,0.1-0.3s0-0.2-0.1-0.4C65.6,12.7,65.5,12.5,65.4,12.3"/>
	<path class="st0" d="M7.4,13.3L3,2.7C2.9,2.3,2.7,2.1,2.6,1.9C2.4,1.7,2.3,1.5,2.1,1.4C2,1.4,1.9,1.3,1.7,1.3h0h0
		c-0.2,0-0.3-0.1-0.3-0.2c0-0.1,0-0.1,0.1-0.2c0,0,0.1-0.1,0.2-0.1c0,0,0.1,0,0.2,0c0.5,0,0.9,0.1,1.3,0.1c0.3,0,0.6,0,0.9,0
		c0.3,0,0.5,0,0.5,0c0.1,0,0.2,0,0.2,0.1C4.9,0.9,4.9,1,4.9,1c0,0.1-0.1,0.1-0.4,0.3C4.3,1.5,4.2,1.6,4.2,1.9c0,0.1,0,0.2,0.1,0.4
		c0.1,0.2,0.1,0.4,0.2,0.6l3.3,8C7.9,11,7.9,11,8,11.1c0,0.1,0.1,0.1,0.1,0.1c0,0,0.1,0,0.1-0.1c0-0.1,0.1-0.1,0.1-0.2L11,4.5
		c0.2-0.6,0.4-1.1,0.6-1.6c0.1-0.5,0.2-0.8,0.2-1.1c0-0.1,0-0.2-0.1-0.3c-0.1-0.1-0.2-0.2-0.4-0.2c-0.2,0-0.6-0.1-0.6-0.3
		c0-0.1,0-0.1,0.1-0.2c0,0,0.1,0,0.3,0c0.2,0,0.5,0,0.7,0c0.3,0,0.5,0,0.7,0c0.4,0,0.8-0.1,1.1-0.1c0.1,0,0.2,0,0.2,0.1
		c0,0,0.1,0.1,0.1,0.2c0,0.1,0,0.1-0.1,0.2c-0.1,0.1-0.4,0.2-0.5,0.3c-0.2,0.2-0.5,0.8-1,1.8c-0.1,0.2-0.1,0.3-0.1,0.3L8,13.4
		c0,0.1-0.1,0.1-0.1,0.2c-0.1,0-0.1,0.1-0.2,0.1c-0.1,0-0.1,0-0.2-0.1C7.5,13.5,7.4,13.4,7.4,13.3 M12.7,8.3h2.5c0.6,0,1,0,1.1-0.1
		c0.2-0.1,0.2-0.2,0.2-0.3c0-0.5-0.2-0.9-0.6-1.3c-0.4-0.4-0.8-0.6-1.4-0.6c-0.5,0-0.9,0.2-1.2,0.6C13,7.1,12.8,7.6,12.7,8.3
		 M12.7,8.8c0,1.2,0.3,2.1,0.8,2.8c0.5,0.7,1.2,1,2.1,1c0.7,0,1.3-0.2,2-0.7c0.1-0.1,0.5-0.3,0.5-0.1c0,0.1,0,0.2-0.1,0.2
		c-0.1,0.1-0.2,0.2-0.3,0.3c-0.4,0.4-0.9,0.7-1.3,0.9c-0.5,0.2-1,0.3-1.5,0.3c-1,0-1.8-0.4-2.4-1.1c-0.7-0.7-1-1.6-1-2.7
		c0-1.1,0.3-2.1,1-2.9c0.7-0.8,1.5-1.2,2.4-1.2c0.5,0,1,0.1,1.4,0.3c0.4,0.2,0.8,0.5,1.1,0.9c0.2,0.3,0.4,0.5,0.5,0.8
		C17.9,7.9,18,8.2,18,8.4c0,0.1,0,0.2-0.1,0.3c-0.1,0-0.2,0.1-0.5,0.1H12.7z M20,13.6c-0.3,0.1-0.5,0.3-0.6,0.5
		c-0.1,0.2-0.2,0.5-0.2,0.9c0,0.5,0.2,0.8,0.5,1.1c0.4,0.2,0.9,0.4,1.6,0.4c0.9,0,1.6-0.2,2.2-0.5c0.5-0.3,0.8-0.7,0.8-1.2
		c0-0.3-0.1-0.5-0.2-0.6c-0.2-0.1-0.4-0.2-0.8-0.2c-0.2,0-0.5,0-0.9,0C21.3,13.7,20.5,13.7,20,13.6 M20,7.9c0,0.8,0.2,1.4,0.5,1.9
		c0.3,0.4,0.7,0.6,1.3,0.6c0.6,0,1-0.2,1.3-0.5c0.3-0.3,0.4-0.9,0.4-1.5c0-0.8-0.2-1.4-0.5-1.8c-0.3-0.5-0.7-0.7-1.3-0.7
		c-0.5,0-1,0.2-1.3,0.6C20.1,6.8,20,7.3,20,7.9 M19.6,13.3c-0.2-0.1-0.4-0.2-0.5-0.5c-0.1-0.2-0.2-0.4-0.2-0.7
		c0-0.3,0.1-0.6,0.2-0.8c0.2-0.3,0.4-0.6,0.7-0.9c-0.4-0.2-0.6-0.5-0.8-0.9c-0.2-0.4-0.3-0.8-0.3-1.3c0-0.8,0.3-1.5,0.8-2
		c0.6-0.5,1.2-0.8,2-0.8c0.6,0,1.1,0.1,1.6,0.4c0.8,0.4,1.2,1,1.4,1.8c0,0.1,0,0.3,0,0.5c0,0.8-0.3,1.5-0.8,2
		c-0.6,0.5-1.3,0.8-2.3,0.8c-0.2,0-0.5,0-0.7-0.1c-0.2,0-0.4-0.1-0.4-0.1c-0.2,0-0.4,0.1-0.5,0.3c-0.2,0.2-0.2,0.4-0.2,0.7
		c0,0.3,0.2,0.6,0.5,0.7c0.4,0.1,1.3,0.2,2.8,0.2c0.8,0,1.3,0.1,1.6,0.4c0.3,0.2,0.5,0.7,0.5,1.2c0,0.8-0.3,1.4-1,1.9
		c-0.7,0.4-1.6,0.7-2.8,0.7c-0.9,0-1.7-0.2-2.2-0.5c-0.6-0.3-0.8-0.8-0.8-1.3c0-0.3,0.1-0.6,0.3-0.9C18.8,13.8,19.1,13.6,19.6,13.3
		 M30.2,9.4c-1.3,0.3-2.1,0.6-2.6,0.9c-0.5,0.3-0.7,0.8-0.7,1.3c0,0.4,0.1,0.8,0.3,1c0.2,0.2,0.6,0.4,1,0.4c0.6,0,1.1-0.2,1.4-0.5
		c0.4-0.3,0.6-0.7,0.6-1.1V9.4z M30.3,12.4c-0.4,0.4-0.8,0.6-1.3,0.8c-0.5,0.2-1,0.3-1.6,0.3s-1-0.2-1.3-0.4
		c-0.3-0.3-0.4-0.7-0.4-1.3c0-0.7,0.3-1.3,1-1.7c0.6-0.4,1.8-0.8,3.5-1.1V7.8c0-0.5-0.2-1-0.5-1.2c-0.3-0.3-0.8-0.4-1.4-0.4
		c-0.5,0-0.9,0.1-1.1,0.2c-0.2,0.2-0.3,0.4-0.3,0.8c0,0.2,0,0.3,0.1,0.5c0,0.2,0.1,0.3,0.1,0.4c0,0.1,0,0.2-0.1,0.2
		c-0.1,0.1-0.2,0.1-0.3,0.1c-0.2,0-0.4-0.1-0.6-0.2c-0.2-0.1-0.2-0.3-0.2-0.5c0-0.5,0.3-1,0.8-1.4c0.6-0.4,1.2-0.6,2-0.6
		c1.1,0,1.8,0.2,2.2,0.6c0.4,0.4,0.7,1.1,0.7,2.1v3.3c0,0.5,0,0.8,0.1,1c0.1,0.1,0.3,0.2,0.5,0.2c0.1,0,0.1,0,0.2,0
		c0.1,0,0.1,0,0.2,0c0,0,0.1,0,0.1,0.1c0,0,0.1,0.1,0.1,0.1c0,0.1-0.1,0.2-0.3,0.3c-0.2,0.1-0.4,0.1-0.7,0.1c-0.3,0-0.6-0.1-0.8-0.2
		C30.5,13,30.4,12.7,30.3,12.4 M33.6,11.3V7.6c0-0.3-0.1-0.6-0.2-0.7c-0.1-0.1-0.3-0.2-0.6-0.2c-0.2,0-0.3,0-0.4-0.1
		c-0.1,0-0.1-0.1-0.1-0.2c0-0.1,0-0.1,0.1-0.2c0,0,0.2-0.1,0.3-0.1c0,0,0,0,0.1,0c0.1,0,0.2,0,0.2-0.1C33.3,6,33.7,5.9,34,5.7
		c0.3-0.2,0.5-0.3,0.6-0.3c0.1,0,0.1,0,0.2,0.1c0,0.1,0,0.2,0,0.3v1.1c0.5-0.4,0.9-0.8,1.4-1c0.4-0.2,0.9-0.3,1.3-0.3
		c0.4,0,0.8,0.1,1.2,0.3c0.4,0.2,0.7,0.4,0.9,0.8c0.2,0.3,0.4,0.6,0.4,1c0.1,0.4,0.1,1,0.1,1.9v1.7c0,0.5,0,0.8,0.1,1
		c0.1,0.2,0.2,0.3,0.4,0.4c0.1,0,0.1,0.1,0.2,0.1c0.1,0,0.2,0,0.3,0c0.1,0,0.2,0,0.3,0.1c0.1,0,0.1,0.1,0.1,0.2c0,0.1,0,0.1-0.1,0.2
		c0,0-0.1,0.1-0.2,0.1c0,0-0.2,0-0.6,0c-0.4,0-0.7,0-1,0c-0.5,0-0.9,0-1.3,0.1c-0.1,0-0.1,0-0.1,0c-0.1,0-0.1,0-0.1-0.1
		c0,0-0.1-0.1-0.1-0.1c0-0.1,0.1-0.2,0.2-0.3c0.2-0.1,0.3-0.2,0.3-0.3c0.1-0.1,0.2-0.3,0.2-0.4c0-0.2,0.1-0.4,0.1-0.8v-2
		c0-1.1-0.2-1.8-0.5-2.3c-0.3-0.4-0.8-0.6-1.5-0.6c-0.6,0-1.2,0.2-1.5,0.5c-0.4,0.3-0.5,0.8-0.5,1.3v3.1c0,0.5,0,0.8,0.1,1
		c0.1,0.2,0.2,0.3,0.5,0.4c0.1,0,0.1,0.1,0.2,0.1c0.1,0,0.2,0,0.3,0c0.2,0,0.3,0,0.3,0.1c0.1,0,0.1,0.1,0.1,0.2c0,0.1,0,0.1-0.1,0.2
		c-0.1,0-0.1,0.1-0.2,0.1c0,0-0.2,0-0.6,0c-0.4,0-0.7,0-1.1,0c-0.5,0-0.9,0-1.4,0.1c-0.1,0-0.1,0-0.1,0c-0.1,0-0.1,0-0.2-0.1
		c0,0-0.1-0.1-0.1-0.1c0-0.1,0-0.1,0.1-0.2c0,0,0.1-0.1,0.2-0.1c0,0,0,0,0.1-0.1c0.1-0.1,0.2-0.2,0.3-0.2c0.1-0.1,0.2-0.3,0.2-0.5
		C33.5,12,33.6,11.7,33.6,11.3"/>
	<path class="st1" d="M25.6,4.2c-0.3,1.3-0.2,2.2-2.1,2.1C23.4,4.4,24.3,4.4,25.6,4.2"/>
	<path class="st1" d="M67.4,15.3c0.2,0,0.3,0,0.5,0.1c0.2,0.1,0.3,0.2,0.4,0.4c0.1,0.2,0.1,0.3,0.1,0.5s0,0.3-0.1,0.5
		c-0.1,0.2-0.2,0.3-0.4,0.4c-0.2,0.1-0.3,0.1-0.5,0.1c-0.2,0-0.3,0-0.5-0.1c-0.2-0.1-0.3-0.2-0.4-0.4c-0.1-0.2-0.1-0.3-0.1-0.5
		s0-0.3,0.1-0.5c0.1-0.2,0.2-0.3,0.4-0.4S67.3,15.3,67.4,15.3 M67.4,15.5c-0.1,0-0.3,0-0.4,0.1c-0.1,0.1-0.2,0.2-0.3,0.3
		c-0.1,0.1-0.1,0.3-0.1,0.4c0,0.2,0,0.3,0.1,0.4c0.1,0.1,0.2,0.2,0.3,0.3c0.1,0.1,0.3,0.1,0.4,0.1c0.2,0,0.3,0,0.4-0.1
		c0.1-0.1,0.2-0.2,0.3-0.3c0.1-0.1,0.1-0.3,0.1-0.4c0-0.1,0-0.3-0.1-0.4c-0.1-0.1-0.2-0.2-0.3-0.3C67.7,15.5,67.6,15.5,67.4,15.5
		 M67,16.9v-1.1h0.4c0.1,0,0.2,0,0.3,0c0.1,0,0.1,0.1,0.1,0.1c0,0.1,0.1,0.1,0.1,0.2c0,0.1,0,0.2-0.1,0.2c-0.1,0.1-0.1,0.1-0.2,0.1
		c0,0,0.1,0,0.1,0.1c0,0,0.1,0.1,0.2,0.2l0.1,0.2h-0.2l-0.1-0.2c-0.1-0.1-0.1-0.2-0.2-0.3c0,0-0.1,0-0.1,0h-0.1v0.5H67z M67.2,16.2
		h0.2c0.1,0,0.2,0,0.2,0c0,0,0.1-0.1,0.1-0.1c0,0,0-0.1,0-0.1c0,0,0,0-0.1-0.1c0,0-0.1,0-0.2,0h-0.2V16.2z"/>
</g>
</svg>
